<svg xmlns="http://www.w3.org/2000/svg" viewBox="0 0 100 100" fill="none">
  <defs>
    <linearGradient id="circuitGrad" x1="0%" y1="0%" x2="100%" y2="100%">
      <stop offset="0%" style="stop-color:#0C0A09;stop-opacity:1" />
      <stop offset="100%" style="stop-color:#1C1917;stop-opacity:1" />
    </linearGradient>
    <filter id="glow">
      <feGaussianBlur stdDeviation="2" result="coloredBlur"/>
      <feMerge> 
        <feMergeNode in="coloredBlur"/>
        <feMergeNode in="SourceGraphic"/>
      </feMerge>
    </filter>
  </defs>
  
  <!-- Background -->
  <rect width="100" height="100" rx="22" fill="url(#circuitGrad)"/>
  
  <!-- Circuit board pattern representing memory architecture -->
  <!-- Main central processor (M shape) -->
  <rect x="35" y="20" width="6" height="60" rx="1" fill="#00D4AA" filter="url(#glow)"/>
  <rect x="59" y="20" width="6" height="60" rx="1" fill="#00D4AA" filter="url(#glow)"/>
  <rect x="35" y="20" width="30" height="4" rx="1" fill="#00D4AA" filter="url(#glow)"/>
  <rect x="47" y="24" width="6" height="20" rx="1" fill="#00D4AA" filter="url(#glow)"/>
  
  <!-- Memory banks -->
  <rect x="15" y="35" width="12" height="4" rx="1" fill="#3B82F6" opacity="0.8"/>
  <rect x="15" y="45" width="12" height="4" rx="1" fill="#3B82F6" opacity="0.8"/>
  <rect x="15" y="55" width="12" height="4" rx="1" fill="#3B82F6" opacity="0.8"/>
  
  <rect x="73" y="35" width="12" height="4" rx="1" fill="#3B82F6" opacity="0.8"/>
  <rect x="73" y="45" width="12" height="4" rx="1" fill="#3B82F6" opacity="0.8"/>
  <rect x="73" y="55" width="12" height="4" rx="1" fill="#3B82F6" opacity="0.8"/>
  
  <!-- Data pathways -->
  <line x1="27" y1="37" x2="35" y2="37" stroke="#00D4AA" stroke-width="1" opacity="0.6"/>
  <line x1="27" y1="47" x2="35" y2="47" stroke="#00D4AA" stroke-width="1" opacity="0.6"/>
  <line x1="27" y1="57" x2="35" y2="57" stroke="#00D4AA" stroke-width="1" opacity="0.6"/>
  
  <line x1="65" y1="37" x2="73" y2="37" stroke="#00D4AA" stroke-width="1" opacity="0.6"/>
  <line x1="65" y1="47" x2="73" y2="47" stroke="#00D4AA" stroke-width="1" opacity="0.6"/>
  <line x1="65" y1="57" x2="73" y2="57" stroke="#00D4AA" stroke-width="1" opacity="0.6"/>
  
  <!-- Corner indicators -->
  <circle cx="20" cy="20" r="2" fill="#F59E0B" opacity="0.7"/>
  <circle cx="80" cy="20" r="2" fill="#F59E0B" opacity="0.7"/>
  <circle cx="20" cy="80" r="2" fill="#F59E0B" opacity="0.7"/>
  <circle cx="80" cy="80" r="2" fill="#F59E0B" opacity="0.7"/>
</svg>
